<svg xmlns="http://www.w3.org/2000/svg"  viewBox="0 0 72 72" width="64px" height="64px"><path d="M45.049,14C57.06,14,58,14.94,58,26.951v18.098C58,57.06,57.06,58,45.049,58H26.951C14.94,58,14,57.06,14,45.049V26.951	C14,14.94,14.94,14,26.951,14H45.049z M29.713,44.151c4.502,0,8.151-3.649,8.151-8.151c0-4.502-3.649-8.151-8.151-8.151	c-4.502,0-8.151,3.649-8.151,8.151C21.562,40.502,25.212,44.151,29.713,44.151z M42.713,43.757c2.228,0,4.034-3.473,4.034-7.757	c0-4.284-1.806-7.757-4.034-7.757c-2.228,0-4.034,3.473-4.034,7.757C38.679,40.284,40.485,43.757,42.713,43.757z M48.98,42.928	c0.775,0,1.403-3.102,1.403-6.928s-0.628-6.928-1.403-6.928c-0.775,0-1.403,3.102-1.403,6.928S48.205,42.928,48.98,42.928z"/></svg>